<?xml version="1.0" encoding="utf-8"?>
<!-- Generator: Adobe Illustrator 23.0.1, SVG Export Plug-In . SVG Version: 6.00 Build 0)  -->
<svg version="1.1" id="Capa_1" xmlns="http://www.w3.org/2000/svg" xmlns:xlink="http://www.w3.org/1999/xlink" x="0px" y="0px"
	 viewBox="0 0 14 14" style="enable-background:new 0 0 14 14;" xml:space="preserve">
<style type="text/css">
	.st0{fill:url(#SVGID_1_);}
	.st1{fill:url(#SVGID_2_);}
	.st2{fill:url(#SVGID_3_);}
	.st3{fill:url(#SVGID_4_);}
</style>
<g>
	<g>
		<linearGradient id="SVGID_1_" gradientUnits="userSpaceOnUse" x1="6.9985" y1="7.484" x2="6.9985" y2="12">
			<stop  offset="0" style="stop-color:#FFD338"/>
			<stop  offset="1" style="stop-color:#FF5C00"/>
		</linearGradient>
		<path class="st0" d="M7,9L5.3,7.5l-5,4.2C0.5,11.9,0.7,12,1,12h12c0.3,0,0.5-0.1,0.7-0.3L8.7,7.5L7,9z"/>
		<linearGradient id="SVGID_2_" gradientUnits="userSpaceOnUse" x1="7.001" y1="2" x2="7.001" y2="8">
			<stop  offset="0" style="stop-color:#FFD338"/>
			<stop  offset="1" style="stop-color:#FF5C00"/>
		</linearGradient>
		<path class="st1" d="M13.7,2.3C13.5,2.1,13.3,2,13,2H1C0.7,2,0.5,2.1,0.3,2.3L7,8L13.7,2.3z"/>
		<linearGradient id="SVGID_3_" gradientUnits="userSpaceOnUse" x1="2.4165" y1="2.878" x2="2.4165" y2="11.186">
			<stop  offset="0" style="stop-color:#FFD338"/>
			<stop  offset="1" style="stop-color:#FF5C00"/>
		</linearGradient>
		<polygon class="st2" points="0,2.9 0,11.2 4.8,7.1 		"/>
		<linearGradient id="SVGID_4_" gradientUnits="userSpaceOnUse" x1="11.5835" y1="2.875" x2="11.5835" y2="11.186">
			<stop  offset="0" style="stop-color:#FFD338"/>
			<stop  offset="1" style="stop-color:#FF5C00"/>
		</linearGradient>
		<polygon class="st3" points="9.2,7.1 14,11.2 14,2.9 		"/>
	</g>
</g>
</svg>
